<svg xmlns="http://www.w3.org/2000/svg" aria-hidden="true" style="position:absolute;width:0;height:0;overflow:hidden">
    <defs>
        <symbol id="icon-arrow" viewBox="0 0 32 32">
            <path
                d="M30.907 5.914c.055-.349-.183-.677-.532-.732l-5.689-.901c-.349-.055-.677.183-.732.532s.183.677.532.732l5.057.801-.801 5.057c-.055.349.183.677.532.732s.677-.183.732-.532l.901-5.689zM1.656 27.398 30.651 6.332l-.752-1.036L.904 26.362l.752 1.036z" />
        </symbol>
        <symbol id="icon-arrow-left" viewBox="0 0 32 32">
            <path
                d="M7.703 17.067 6.5 16.249l22.876-.001v-.64l-22.733.001 1.133-.651-.319-.555-2.608 1.498 2.493 1.695.36-.529z" />
        </symbol>
        <symbol id="icon-arrow-right" viewBox="0 0 32 32">
            <path
                d="m21.674 14.79 1.203.818-22.876.001v.64l22.733-.001-1.133.651.319.555 2.608-1.498-2.493-1.695-.36.529z" />
        </symbol>
        <symbol id="icon-burger-menu" viewBox="0 0 32 32">
            <path d="M4 5.333h24V8H4V5.333zm8 9.334h16v2.667H12v-2.667zM4 24h24v2.667H4V24z" />
        </symbol>
        <symbol id="icon-close" viewBox="0 0 32 32">
            <path stroke-linecap="round" stroke-width="2.6667" d="M26.667 5.333 5.334 26.666m21.333.001z" />
        </symbol>
        <symbol id="icon-facebook" viewBox="0 0 32 32">
            <path fill="none" stroke="#fff" stroke-linecap="round" stroke-linejoin="round" stroke-width="2.2857"
                d="M24 2.667h-4c-1.768 0-3.464.702-4.714 1.953s-1.953 2.946-1.953 4.714v4h-4v5.333h4v10.667h5.333V18.667h4l1.333-5.333h-5.333v-4c0-.354.14-.693.39-.943S19.645 8 19.999 8h4V2.667z"
                style="stroke:var(--color1, #fff)" />
        </symbol>
        <symbol id="icon-icon-error-warning" viewBox="0 0 32 32">
            <path fill="#e74a3b"
                d="M0 16C0 7.162 7.162 0 16 0s16 7.162 16 16c0 8.837-7.163 16-16 16S0 24.837 0 16zm10.938-2.994 2.944 2.938-2.944 2.994c-.581.588-.581 1.538 0 2.069.588.637 1.537.637 2.069 0l2.938-2.888 2.994 2.888c.588.637 1.538.637 2.069 0 .637-.531.637-1.481 0-2.069l-2.888-2.994 2.888-2.938c.637-.531.637-1.481 0-2.069-.531-.581-1.481-.581-2.069 0l-2.994 2.944-2.938-2.944c-.531-.581-1.481-.581-2.069 0-.581.588-.581 1.537 0 2.069z"
                style="fill:var(--color2, #e74a3b)" />
        </symbol>
        <symbol id="icon-icon-success" viewBox="0 0 32 32">
            <path fill="#3cbc81"
                d="M0 16C0 7.162 7.162 0 16 0s16 7.162 16 16c0 8.837-7.163 16-16 16S0 24.837 0 16zm23.237-2.762c.681-.681.681-1.794 0-2.475s-1.794-.681-2.475 0l-6.763 6.762-2.763-2.762c-.681-.681-1.794-.681-2.475 0s-.681 1.794 0 2.475l4 4c.681.681 1.794.681 2.475 0l8-8z"
                style="fill:var(--color3, #3cbc81)" />
        </symbol>
        <symbol id="icon-instagram" viewBox="0 0 32 32">
            <path fill="none" stroke="#fff" stroke-linecap="round" stroke-linejoin="round" stroke-width="2.2857"
                d="M22.666 2.667H9.333c-3.682 0-6.667 2.985-6.667 6.667v13.333c0 3.682 2.985 6.667 6.667 6.667h13.333c3.682 0 6.667-2.985 6.667-6.667V9.334c0-3.682-2.985-6.667-6.667-6.667z"
                style="stroke:var(--color1, #fff)" />
            <path fill="none" stroke="#fff" stroke-linecap="round" stroke-linejoin="round" stroke-width="2.2857"
                d="M21.333 15.16c.164 1.11-.025 2.243-.542 3.239s-1.334 1.803-2.336 2.308c-1.002.504-2.137.68-3.245.502s-2.131-.701-2.924-1.494c-.793-.793-1.316-1.816-1.494-2.924s-.003-2.243.502-3.245c.504-1.002 1.312-1.819 2.307-2.336s2.129-.706 3.239-.542c1.132.168 2.18.695 2.989 1.504s1.337 1.857 1.504 2.989zM23.334 8.667h.013"
                style="stroke:var(--color1, #fff)" />
        </symbol>
        <symbol id="icon-linked-path-group" viewBox="0 0 32 32">
            <path
                d="M26.386 17.053c.027-.236.084-.455.173-.658.093-.203.196-.358.311-.466l.285.208c-.1.106-.193.246-.279.42-.082.174-.134.361-.157.561-.031.272-.011.472.059.601.074.129.181.202.322.218.105.012.191-.014.256-.076.069-.058.124-.14.165-.246.045-.105.086-.224.123-.355s.077-.263.122-.394c.044-.127.099-.242.166-.345.07-.102.158-.182.264-.24.105-.054.239-.072.403-.054.156.017.291.077.404.177s.195.238.245.413c.053.179.066.389.039.632-.021.185-.067.367-.139.546-.068.18-.149.325-.242.436l-.291-.203c.101-.117.178-.246.231-.387.056-.141.093-.283.109-.428.029-.257.005-.453-.072-.586-.074-.129-.179-.202-.317-.217-.109-.012-.198.011-.267.069-.069.062-.128.145-.177.25-.045.109-.086.227-.123.355-.037.132-.079.261-.126.388-.044.131-.1.248-.166.35-.063.107-.148.187-.253.242-.102.058-.231.079-.387.061-.167-.019-.307-.082-.419-.19-.109-.104-.189-.249-.238-.434-.046-.181-.054-.397-.026-.647zM28.356 21.102c-.087.217-.206.389-.356.518-.148.133-.325.212-.531.236-.208.027-.44-.011-.698-.114l-1.55-.62.145-.36 1.515.606c.281.112.522.126.721.041.202-.081.353-.248.456-.502.076-.19.104-.371.083-.544-.019-.169-.085-.321-.2-.457-.112-.131-.27-.238-.473-.319l-1.403-.561.145-.361 3.771 1.508-.145.361-1.835-.734.166-.016c.159.162.255.358.289.587.037.231.004.475-.1.732zM24.198 22.446c.175-.215.382-.369.619-.463.238-.089.482-.114.733-.075.254.041.491.152.712.331.224.182.38.391.469.628s.113.479.07.727c-.042.248-.152.48-.33.698-.18.22-.388.376-.622.468-.237.094-.48.12-.728.078-.251-.039-.488-.15-.712-.331-.221-.179-.377-.389-.469-.628-.091-.234-.116-.478-.075-.73.044-.251.156-.485.334-.702zm.268.217c-.132.161-.213.332-.244.514-.028.184-.006.364.067.541.073.182.196.342.369.483.176.143.359.23.549.262.188.035.368.019.541-.047.175-.064.328-.176.457-.334s.208-.329.236-.514c.031-.182.011-.362-.059-.542s-.193-.34-.369-.483c-.173-.14-.356-.228-.549-.262-.19-.032-.373-.016-.548.048-.172.067-.322.178-.449.333zM21.663 24.742c.207-.137.425-.215.655-.232.232-.014.458.035.678.147.219.117.416.306.591.567s.273.513.296.756c.025.247-.015.473-.119.678s-.261.378-.471.517c-.228.152-.466.236-.714.252-.249.021-.488-.026-.715-.142-.225-.113-.418-.29-.578-.529-.162-.243-.253-.489-.271-.74s.029-.488.142-.713c.11-.222.279-.409.507-.561zm.66-1.682 2.19 3.27-.31.206-.481-.719-.288-.499-.368-.452L22 23.274l.324-.215zm-.445 1.953c-.17.113-.297.252-.38.417-.081.168-.114.348-.1.54.016.195.087.385.21.57s.272.321.444.408c.172.087.352.125.538.115s.365-.072.535-.185c.17-.113.297-.255.381-.424.081-.168.114-.348.1-.54-.017-.19-.088-.377-.212-.562s-.271-.323-.443-.415c-.172-.087-.352-.125-.538-.115-.188.015-.366.079-.536.193zM17.938 29.188c-.231.036-.44.022-.627-.041-.19-.059-.348-.171-.473-.337-.129-.165-.215-.384-.258-.658l-.257-1.65.384-.059.251 1.612c.047.299.157.513.332.641.172.132.393.177.664.136.202-.031.372-.1.511-.206.136-.102.233-.237.291-.405.056-.164.067-.354.033-.57l-.233-1.493.384-.059.442 2.839-.368.057-.121-.779.082.137c-.058.22-.177.402-.358.548-.18.15-.407.246-.681.288zM14.62 26.308c.274.04.513.138.715.293.198.158.344.355.438.59.094.239.12.499.078.78-.042.285-.142.527-.301.725s-.355.342-.59.433c-.235.091-.491.116-.769.075-.282-.041-.522-.139-.72-.294-.202-.155-.348-.35-.439-.585-.094-.235-.12-.495-.078-.78.042-.282.142-.523.301-.725.155-.199.352-.345.591-.439.238-.09.497-.115.775-.074zm-.05.341c-.206-.03-.395-.012-.567.055-.173.071-.316.182-.431.335-.119.156-.195.344-.227.564-.033.224-.015.426.054.605.066.179.171.326.317.439.145.117.319.191.521.22s.39.009.562-.061c.172-.067.318-.177.436-.329s.194-.34.227-.564c.033-.22.014-.422-.054-.605-.069-.18-.176-.328-.321-.446-.146-.114-.318-.185-.516-.214zM12.224 25.818l-.419 3.04-.327-.177.407-2.81.149.081-2.164 1.86-.294-.159.392-2.818.149.081-2.155 1.866-.313-.169 2.331-2.007.323.174-.35 2.66-.101-.055 2.05-1.742.323.174zM7.625 22.196c.139.192.244.393.315.603.068.212.096.396.083.554l-.352.037c.003-.146-.023-.312-.077-.498-.057-.184-.144-.357-.262-.52-.16-.222-.31-.357-.449-.405-.142-.046-.27-.028-.386.055-.086.062-.132.138-.139.228-.012.089.003.187.043.293.038.108.087.223.148.345s.12.246.175.373c.053.123.09.246.11.366.017.123.006.241-.034.355-.041.111-.129.214-.262.31-.127.092-.267.138-.419.14s-.305-.045-.46-.141c-.16-.096-.311-.243-.455-.441-.109-.151-.198-.316-.265-.497-.071-.178-.109-.34-.114-.484l.353-.045c.004.155.034.302.09.441.053.142.122.272.208.39.152.21.301.338.448.386.142.046.269.029.381-.052.089-.064.139-.141.151-.23.01-.092-.003-.194-.037-.304-.04-.111-.089-.226-.148-.345-.061-.122-.117-.246-.168-.372-.056-.126-.093-.25-.113-.371-.025-.121-.017-.238.025-.348.036-.112.118-.213.246-.305.136-.098.283-.145.439-.14.151.004.307.058.469.162.156.104.308.257.456.461zM3.437 20.529c-.081-.219-.11-.426-.085-.622.02-.198.098-.375.235-.53.135-.159.333-.287.593-.383l1.566-.579.136.364-1.53.566c-.284.105-.471.256-.562.453-.095.195-.095.42.001.677.071.192.173.345.305.459.127.112.279.181.456.205.172.022.36-.005.566-.081l1.417-.524.136.364-3.809 1.409-.136-.364 1.853-.685-.112.123c-.227-.013-.43-.094-.61-.241-.183-.146-.323-.349-.42-.609zM5.604 16.759c.015.277-.033.53-.145.759-.116.226-.279.408-.491.547-.215.14-.465.217-.749.232-.288.016-.545-.035-.77-.15s-.406-.28-.542-.492c-.136-.212-.211-.458-.226-.739-.015-.284.033-.539.145-.764.112-.229.274-.411.486-.547.212-.139.462-.217.749-.232.284-.015.541.035.77.15.225.112.408.276.547.491.136.216.212.464.227.744zm-.345.019c-.011-.208-.067-.389-.167-.545-.103-.155-.241-.274-.414-.356-.176-.086-.376-.122-.598-.11-.226.012-.42.07-.583.174-.163.1-.285.233-.368.398-.086.165-.124.35-.112.554s.068.384.172.539c.1.155.236.276.409.362s.372.122.598.11c.222-.012.416-.07.583-.174.162-.104.287-.238.373-.404.082-.165.118-.348.107-.548zM5.926 13.351c-.061.241-.17.445-.329.612-.162.166-.363.282-.601.346-.241.06-.514.052-.818-.024s-.547-.197-.727-.362c-.184-.166-.306-.361-.367-.583s-.06-.455.001-.699c.067-.265.187-.488.359-.666.17-.183.378-.308.625-.374.243-.067.504-.066.784.004.283.071.516.193.698.366s.307.381.374.624c.068.239.068.491.002.756zm.642 1.689-3.818-.954.091-.361.839.21.548.177.576.088 1.859.464-.095.377zm-.983-1.746c.05-.198.05-.386.001-.564-.053-.179-.149-.334-.289-.467-.143-.134-.323-.227-.539-.281s-.417-.055-.603-.004-.345.143-.476.276c-.131.133-.222.298-.272.496s-.049.388.003.571c.053.179.149.334.289.467.141.129.319.221.535.275s.418.058.607.011c.186-.051.345-.143.476-.276.129-.137.218-.305.268-.503zM5.683 7.578c.147-.181.311-.311.493-.39.181-.084.373-.107.577-.069.206.035.418.14.634.314l1.3 1.048-.245.302-1.27-1.024c-.236-.19-.462-.274-.678-.251-.216.018-.411.133-.583.345-.129.159-.209.324-.24.496-.032.167-.013.332.056.495.069.159.188.306.359.444l1.176.948-.245.302L4.78 8.735l.234-.289.614.495-.153-.046c-.104-.201-.139-.417-.103-.646.033-.231.136-.455.311-.67zM10.033 7.512c-.23.154-.473.242-.727.263-.253.016-.494-.031-.723-.141-.231-.113-.426-.288-.585-.524-.161-.239-.25-.485-.267-.737s.032-.491.144-.716c.112-.225.285-.415.519-.572.236-.159.48-.247.731-.267.254-.021.494.024.72.137.229.11.424.285.585.524.159.236.248.482.267.737.019.251-.027.491-.141.721-.115.227-.29.419-.523.575zm-.193-.285c.173-.116.3-.256.383-.421.08-.168.111-.347.093-.537-.017-.195-.088-.385-.213-.569-.127-.188-.276-.324-.449-.411-.17-.088-.347-.126-.531-.112-.186.011-.364.073-.534.187s-.295.255-.375.423c-.082.165-.116.344-.101.536s.086.382.213.569c.125.184.274.321.449.411.173.086.352.124.539.113.184-.014.36-.077.527-.188zM12.183 6.236 10.45 3.699l.362-.087L12.4 5.97l-.165.04.354-2.828.325-.079 1.604 2.355-.165.04.343-2.826.346-.084-.379 3.048-.356.086-1.529-2.209.112-.027-.349 2.664-.356.086zM18.017 5.834c-.232-.05-.444-.129-.638-.237-.192-.112-.337-.231-.433-.356l.236-.263c.096.11.226.216.391.319.165.099.346.169.542.211.268.057.469.057.605.001.136-.06.219-.16.249-.299.022-.103.006-.191-.05-.263-.051-.074-.127-.137-.228-.189-.1-.055-.214-.107-.341-.157s-.254-.103-.38-.16c-.122-.056-.231-.122-.327-.199-.095-.08-.166-.175-.213-.286-.044-.11-.048-.245-.013-.406.033-.153.105-.282.217-.385s.257-.171.436-.203c.183-.035.394-.028.633.023.182.039.359.103.53.192.172.085.308.18.409.283l-.232.27c-.106-.112-.227-.202-.362-.268-.134-.07-.273-.12-.416-.15-.253-.054-.45-.05-.591.014-.136.06-.219.158-.248.294-.023.107-.009.198.042.272.055.075.132.142.231.201.104.056.217.108.341.157.127.05.252.104.373.164.126.057.237.123.332.2.1.074.172.165.215.276.048.107.055.238.022.391-.035.164-.112.297-.231.398-.115.099-.267.163-.456.194-.185.028-.401.015-.647-.038zM22.287 4.274c.207.108.367.243.48.405.118.16.178.344.181.551.006.209-.056.436-.185.682l-.776 1.478-.345-.18.758-1.444c.141-.268.179-.506.114-.712-.06-.208-.211-.375-.454-.502-.181-.094-.359-.14-.534-.136-.17.002-.329.053-.476.153-.142.099-.265.245-.366.439l-.702 1.338-.345-.18 1.887-3.596.345.18-.918 1.75.001-.166c.178-.142.382-.218.615-.229.234-.014.474.043.72.172zM23.225 8.529c-.197-.195-.331-.415-.402-.659-.065-.244-.066-.489-.003-.734.066-.248.2-.472.401-.674.203-.204.428-.339.673-.404s.49-.065.733.001.465.198.664.396c.202.2.338.421.406.663.071.245.073.488.007.73-.064.245-.197.47-.401.674-.201.202-.425.336-.673.404-.243.068-.488.069-.737.003-.246-.069-.469-.202-.668-.399zm.244-.245c.148.146.311.244.49.292.181.046.363.041.547-.014.188-.055.361-.161.518-.319.16-.16.265-.333.316-.519.054-.183.056-.363.006-.541-.047-.18-.143-.342-.289-.486s-.308-.238-.489-.284c-.179-.048-.361-.046-.547.006s-.359.158-.518.319c-.157.158-.262.331-.316.519-.051.186-.053.369-.006.549.05.178.146.337.289.478zM25.257 11.22c-.118-.218-.174-.443-.17-.673.008-.232.078-.452.211-.659.138-.206.345-.383.621-.531s.538-.222.783-.22c.248-.001.47.061.665.184s.352.296.472.517c.13.241.191.485.184.734-.002.25-.072.482-.209.696-.134.213-.328.387-.582.523-.257.138-.512.204-.764.198s-.484-.076-.698-.21c-.212-.131-.382-.317-.512-.558zm-1.616-.817 3.469-1.858.177.328-.762.408-.525.238-.486.322-1.689.904-.184-.342zm1.907.631c.097.18.224.319.38.417.16.097.336.147.529.151.196.003.392-.049.589-.154s.346-.239.449-.402c.103-.163.158-.337.166-.523s-.037-.369-.134-.549c-.097-.18-.226-.32-.388-.419-.16-.097-.336-.147-.529-.151-.191-.001-.385.051-.581.156s-.348.238-.456.4c-.103.163-.158.337-.166.523-.003.188.045.371.142.551z" />
        </symbol>
        <symbol id="icon-logo-mobile" viewBox="0 0 41 32">
            <path
                d="M16.241 31.144v-4.916l-.219-.922v-8.384c0-1.785-.527-3.16-1.58-4.126-1.024-.995-2.575-1.492-4.653-1.492-1.375 0-2.721.234-4.038.702-1.317.439-2.429 1.039-3.336 1.8L.659 10.645c1.2-.966 2.634-1.697 4.302-2.195 1.697-.527 3.468-.79 5.311-.79 3.19 0 5.648.775 7.374 2.326s2.59 3.921 2.59 7.111v14.047h-3.994zm-7.637.263c-1.727 0-3.248-.293-4.565-.878-1.288-.585-2.283-1.39-2.985-2.414C.352 27.062 0 25.876 0 24.559c0-1.258.293-2.4.878-3.424.615-1.024 1.595-1.844 2.941-2.458 1.375-.615 3.219-.922 5.531-.922h7.375v3.029H9.526c-2.107 0-3.526.351-4.258 1.053s-1.097 1.551-1.097 2.546c0 1.141.454 2.063 1.361 2.765.907.673 2.166 1.01 3.775 1.01 1.58 0 2.956-.351 4.126-1.053 1.2-.702 2.063-1.727 2.59-3.073l.834 2.897c-.556 1.375-1.536 2.473-2.941 3.292-1.405.79-3.175 1.185-5.311 1.185z" />
            <path
                d="M29.718 31.407c-2.487 0-4.682-.512-6.584-1.536-1.873-1.024-3.336-2.429-4.39-4.214-1.024-1.785-1.536-3.834-1.536-6.145s.497-4.36 1.492-6.145c1.024-1.785 2.414-3.175 4.17-4.17 1.785-1.024 3.79-1.536 6.014-1.536 2.253 0 4.243.498 5.97 1.492s3.073 2.4 4.038 4.214c.995 1.785 1.492 3.878 1.492 6.277 0 .176-.015.38-.044.614 0 .234-.015.454-.044.659H20.499v-3.029h17.602l-1.712 1.053c.029-1.492-.278-2.824-.922-3.995s-1.536-2.078-2.678-2.722c-1.112-.673-2.414-1.01-3.907-1.01-1.463 0-2.765.337-3.907 1.01-1.141.644-2.034 1.566-2.678 2.765-.644 1.171-.966 2.517-.966 4.038v.702c0 1.551.351 2.941 1.053 4.17.732 1.2 1.741 2.136 3.029 2.809s2.765 1.01 4.433 1.01c1.375 0 2.619-.234 3.731-.702 1.141-.468 2.136-1.171 2.985-2.107l2.327 2.721c-1.053 1.229-2.37 2.166-3.951 2.809-1.551.644-3.292.966-5.224.966zM37.311 3.292H21.947V0h15.364v3.292z" />
        </symbol>
        <symbol id="icon-logo-tablet" viewBox="0 0 40 32">
            <path
                d="M16.463 31.448v-5.12l-.132-.839v-8.563c0-1.971-.559-3.487-1.677-4.546-1.089-1.059-2.722-1.589-4.899-1.589-1.501 0-2.928.25-4.281.75s-2.501 1.162-3.443 1.986L.619 11.188c1.177-1 2.589-1.766 4.237-2.295 1.648-.559 3.384-.839 5.208-.839 3.001 0 5.311.75 6.93 2.251 1.648 1.471 2.472 3.722 2.472 6.753v14.389h-3.001zm-7.989.221c-1.736 0-3.252-.28-4.546-.839-1.265-.589-2.236-1.383-2.913-2.383C.338 27.417 0 26.24 0 24.916c0-1.206.28-2.295.839-3.266.589-1 1.53-1.795 2.825-2.383 1.324-.618 3.09-.927 5.297-.927h7.989v2.339H9.049c-2.236 0-3.796.397-4.679 1.192-.853.794-1.28 1.78-1.28 2.957 0 1.324.515 2.383 1.545 3.178s2.472 1.192 4.326 1.192c1.766 0 3.281-.397 4.546-1.192 1.295-.824 2.236-2.001 2.825-3.531l.706 2.163c-.589 1.53-1.618 2.751-3.09 3.663-1.442.912-3.266 1.368-5.473 1.368z" />
            <path
                d="M29.44 31.669c-2.413 0-4.531-.5-6.356-1.501-1.824-1.03-3.251-2.428-4.281-4.193-1.03-1.795-1.545-3.84-1.545-6.135s.486-4.326 1.457-6.091c1-1.766 2.354-3.149 4.061-4.149 1.736-1.03 3.678-1.545 5.826-1.545 2.178 0 4.105.5 5.782 1.501 1.707.971 3.046 2.354 4.017 4.149.971 1.766 1.457 3.811 1.457 6.135 0 .147-.015.309-.044.486v.486H19.643v-2.339h18.494l-1.236.927c0-1.677-.368-3.163-1.103-4.458-.706-1.324-1.677-2.354-2.913-3.09s-2.663-1.103-4.281-1.103c-1.589 0-3.016.368-4.281 1.103s-2.251 1.766-2.957 3.09c-.706 1.324-1.059 2.84-1.059 4.546v.486c0 1.766.383 3.325 1.148 4.679.794 1.324 1.883 2.369 3.266 3.134 1.412.736 3.016 1.103 4.811 1.103 1.412 0 2.722-.25 3.928-.75 1.236-.5 2.295-1.265 3.178-2.295l1.766 2.03c-1.03 1.236-2.325 2.177-3.884 2.825-1.53.647-3.222.971-5.076.971zM37.296 3.31H21.848V0h15.448v3.31z" />
        </symbol>
        <symbol id="icon-tel" viewBox="0 0 32 32">
            <path
                d="m29.276 6.061-3.873-3.869c-.473-.473-1.105-.738-1.775-.738s-1.302.262-1.775.738l-4.171 4.163c-.473.473-.738 1.109-.738 1.778 0 .673.262 1.302.738 1.778l3.258 3.261c-.742 1.729-1.809 3.3-3.142 4.629-1.335 1.342-2.895 2.4-4.625 3.149l-3.258-3.261c-.473-.473-1.105-.738-1.775-.738-.33-.001-.657.063-.962.19s-.581.313-.813.548L2.19 21.852c-.473.473-.738 1.109-.738 1.778 0 .673.262 1.302.738 1.778l3.869 3.869c.807.807 1.92 1.269 3.062 1.269.236 0 .465-.018.698-.058 4.814-.793 9.593-3.356 13.451-7.21 3.855-3.861 6.415-8.639 7.215-13.456.229-1.367-.229-2.774-1.211-3.76zm-1.367 3.327c-.709 4.287-3.015 8.563-6.487 12.035S13.676 27.2 9.389 27.909c-.538.091-1.091-.091-1.484-.48l-3.8-3.8 4.029-4.032 4.389 4.396.785-.291c2.382-.875 4.544-2.258 6.338-4.053s3.176-3.957 4.051-6.339l.291-.785-4.393-4.389 4.029-4.032 3.8 3.8c.393.393.575.945.484 1.483z" />
        </symbol>
    </defs>
</svg>